# Blender v2.93.4 OBJ File: 'file cabinet.blend'
# www.blender.org
mtllib cabinet.mtl
o Cube.005_Cube.009
v 0.437500 0.562450 -0.437485
v 0.437500 0.687450 -0.437485
v 0.125000 0.562450 -0.437486
v 0.125000 0.687450 -0.437486
v 0.437500 0.562450 -0.499985
v 0.437500 0.687450 -0.499985
v 0.125000 0.562450 -0.499985
v 0.125000 0.687450 -0.499985
v 0.562500 -0.500050 0.437514
v 0.562500 1.062450 0.437514
v -0.562500 -0.500050 0.437514
v -0.562500 1.062450 0.437514
v 0.562500 -0.500050 -0.437485
v 0.562500 1.062450 -0.437485
v -0.562500 -0.500050 -0.437485
v -0.562500 1.062450 -0.437485
v 0.437500 0.687450 -0.437485
v 0.437500 0.937450 -0.437485
v -0.437500 0.687450 -0.437486
v -0.437500 0.937450 -0.437486
v 0.437500 0.687450 -0.499985
v 0.437500 0.937450 -0.499985
v -0.437500 0.687450 -0.499986
v -0.437500 0.937450 -0.499986
v 0.437500 0.312450 -0.437485
v 0.437500 0.562450 -0.437485
v -0.437500 0.312450 -0.437486
v -0.437500 0.562450 -0.437486
v 0.437500 0.312450 -0.499985
v 0.437500 0.562450 -0.499985
v -0.437500 0.312450 -0.499986
v -0.437500 0.562450 -0.499986
v 0.437500 -0.000050 -0.437485
v 0.437500 0.249950 -0.437485
v -0.437500 -0.000050 -0.437486
v -0.437500 0.249950 -0.437486
v 0.437500 -0.000050 -0.499985
v 0.437500 0.249950 -0.499985
v -0.437500 -0.000050 -0.499986
v -0.437500 0.249950 -0.499986
v 0.437500 -0.375050 -0.437485
v 0.437500 -0.125050 -0.437485
v -0.437500 -0.375050 -0.437486
v -0.437500 -0.125050 -0.437486
v 0.437500 -0.375050 -0.499985
v 0.437500 -0.125050 -0.499985
v -0.437500 -0.375050 -0.499986
v -0.437500 -0.125050 -0.499986
v -0.125000 0.562450 -0.437486
v -0.125000 0.687450 -0.437486
v -0.437500 0.562450 -0.437486
v -0.437500 0.687450 -0.437486
v -0.125000 0.562450 -0.499985
v -0.125000 0.687450 -0.499985
v -0.437500 0.562450 -0.499986
v -0.437500 0.687450 -0.499986
v 0.437500 -0.125050 -0.437485
v 0.437500 -0.000050 -0.437485
v 0.125000 -0.125050 -0.437486
v 0.125000 -0.000050 -0.437486
v 0.437500 -0.125050 -0.499985
v 0.437500 -0.000050 -0.499985
v 0.125000 -0.125050 -0.499985
v 0.125000 -0.000050 -0.499985
v -0.125000 -0.125050 -0.437486
v -0.125000 -0.000050 -0.437486
v -0.437500 -0.125050 -0.437486
v -0.437500 -0.000050 -0.437486
v -0.125000 -0.125050 -0.499985
v -0.125000 -0.000050 -0.499985
v -0.437500 -0.125050 -0.499986
v -0.437500 -0.000050 -0.499986
vt 0.134615 0.000000
vt 0.211538 0.000000
vt 0.211538 0.153846
vt 0.134615 0.153846
vt 0.115385 0.435897
vt 0.134615 0.435897
vt 0.134615 0.487179
vt 0.115385 0.487179
vt 0.134615 0.435897
vt 0.038462 0.487179
vt 0.038462 0.435897
vt 0.057692 0.435897
vt 0.057692 0.487179
vt 0.038462 0.487179
vt 0.038462 0.333333
vt 0.134615 0.333333
vt 0.134615 0.487179
vt 0.211538 0.333333
vt 0.307692 0.333333
vt 0.307692 0.487179
vt 0.211538 0.487179
vt 0.692308 0.000000
vt 0.692308 0.641026
vt 0.346154 0.641026
vt 0.346154 0.000000
vt 1.000000 0.000000
vt 1.000000 0.641026
vt 0.692308 0.641026
vt 0.692308 0.000000
vt 0.346154 0.000000
vt 0.346154 0.641026
vt 0.000000 0.641026
vt 0.000000 0.000000
vt 0.692308 0.000000
vt 0.692308 0.641026
vt 0.346154 0.641026
vt 0.346154 0.000000
vt 0.000000 0.641026
vt 0.000000 1.000000
vt 0.346154 1.000000
vt 0.346154 0.641026
vt 0.346154 1.000000
vt 0.000000 1.000000
vt 0.134615 0.000000
vt 0.211538 0.000000
vt 0.211538 0.153846
vt 0.134615 0.153846
vt 0.288462 0.487179
vt 0.307692 0.487179
vt 0.307692 0.589744
vt 0.288462 0.589744
vt 0.307692 0.487179
vt 0.038462 0.589744
vt 0.038462 0.487179
vt 0.057692 0.487179
vt 0.057692 0.589744
vt 0.038462 0.589744
vt 0.115385 0.487179
vt 0.230769 0.487179
vt 0.230769 0.512821
vt 0.115385 0.512821
vt 0.307692 0.564103
vt 0.307692 0.589744
vt 0.038462 0.589744
vt 0.038462 0.564103
vt 0.134615 0.000000
vt 0.211538 0.000000
vt 0.211538 0.153846
vt 0.134615 0.153846
vt 0.288462 0.333333
vt 0.307692 0.333333
vt 0.307692 0.435897
vt 0.288462 0.435897
vt 0.307692 0.333333
vt 0.038462 0.435897
vt 0.038462 0.333333
vt 0.057692 0.435897
vt 0.057692 0.333333
vt 0.038462 0.333333
vt 0.307692 0.358974
vt 0.038462 0.358974
vt 0.115385 0.410256
vt 0.230769 0.410256
vt 0.230769 0.435897
vt 0.115385 0.435897
vt 0.134615 0.000000
vt 0.211538 0.000000
vt 0.211538 0.153846
vt 0.134615 0.153846
vt 0.288462 0.205128
vt 0.307692 0.205128
vt 0.307692 0.307692
vt 0.288462 0.307692
vt 0.307692 0.205128
vt 0.038462 0.307692
vt 0.038462 0.205128
vt 0.038462 0.487179
vt 0.057692 0.487179
vt 0.057692 0.589744
vt 0.038462 0.589744
vt 0.115385 0.205128
vt 0.230769 0.205128
vt 0.230769 0.230769
vt 0.115385 0.230769
vt 0.307692 0.282051
vt 0.038462 0.282051
vt 0.134615 0.000000
vt 0.211538 0.000000
vt 0.211538 0.153846
vt 0.134615 0.153846
vt 0.288462 0.153846
vt 0.307692 0.153846
vt 0.307692 0.205128
vt 0.288462 0.205128
vt 0.307692 0.051282
vt 0.307692 0.153846
vt 0.038462 0.153846
vt 0.038462 0.051282
vt 0.038462 0.333333
vt 0.038462 0.435897
vt 0.057692 0.435897
vt 0.057692 0.333333
vt 0.038462 0.051282
vt 0.307692 0.076923
vt 0.038462 0.076923
vt 0.115385 0.128205
vt 0.230769 0.128205
vt 0.230769 0.153846
vt 0.115385 0.153846
vt 0.134615 0.000000
vt 0.211538 0.000000
vt 0.211538 0.153846
vt 0.134615 0.153846
vt 0.288462 0.435897
vt 0.307692 0.435897
vt 0.307692 0.487179
vt 0.288462 0.487179
vt 0.307692 0.435897
vt 0.211538 0.487179
vt 0.211538 0.435897
vt 0.230769 0.435897
vt 0.230769 0.487179
vt 0.211538 0.487179
vt 0.038462 0.333333
vt 0.134615 0.333333
vt 0.134615 0.487179
vt 0.038462 0.487179
vt 0.211538 0.333333
vt 0.307692 0.333333
vt 0.307692 0.487179
vt 0.134615 0.000000
vt 0.211538 0.000000
vt 0.211538 0.153846
vt 0.134615 0.153846
vt 0.115385 0.153846
vt 0.134615 0.153846
vt 0.134615 0.205128
vt 0.115385 0.205128
vt 0.134615 0.153846
vt 0.038462 0.205128
vt 0.038462 0.153846
vt 0.038462 0.435897
vt 0.057692 0.435897
vt 0.057692 0.487179
vt 0.038462 0.487179
vt 0.038462 0.333333
vt 0.134615 0.333333
vt 0.134615 0.487179
vt 0.000000 0.000000
vt 0.346154 0.000000
vt 0.346154 0.641026
vt 0.000000 0.641026
vt 0.134615 0.000000
vt 0.211538 0.000000
vt 0.211538 0.153846
vt 0.134615 0.153846
vt 0.288462 0.153846
vt 0.307692 0.153846
vt 0.307692 0.205128
vt 0.288462 0.205128
vt 0.307692 0.153846
vt 0.211538 0.205128
vt 0.211538 0.153846
vt 0.230769 0.153846
vt 0.230769 0.205128
vt 0.211538 0.205128
vt 0.000000 0.000000
vt 0.346154 0.000000
vt 0.346154 0.641026
vt 0.000000 0.641026
vt 0.211538 0.333333
vt 0.307692 0.333333
vt 0.307692 0.487179
vt 0.211538 0.487179
vn -0.0000 0.0000 1.0000
vn -1.0000 0.0000 -0.0000
vn 0.0000 0.0000 -1.0000
vn 1.0000 0.0000 0.0000
vn 0.0000 -1.0000 0.0000
vn 0.0000 1.0000 -0.0000
usemtl Material.001
s off
f 1/1/1 2/2/1 4/3/1 3/4/1
f 3/5/2 4/6/2 8/7/2 7/8/2
f 7/9/3 8/7/3 6/10/3 5/11/3
f 5/11/4 6/12/4 2/13/4 1/14/4
f 3/15/5 7/16/5 5/17/5 1/14/5
f 8/18/6 4/19/6 2/20/6 6/21/6
f 9/22/1 10/23/1 12/24/1 11/25/1
f 11/26/2 12/27/2 16/28/2 15/29/2
f 15/30/3 16/31/3 14/32/3 13/33/3
f 13/34/4 14/35/4 10/36/4 9/37/4
f 11/38/5 15/39/5 13/40/5 9/41/5
f 16/31/6 12/42/6 10/43/6 14/32/6
f 17/44/1 18/45/1 20/46/1 19/47/1
f 19/48/2 20/49/2 24/50/2 23/51/2
f 23/52/3 24/50/3 22/53/3 21/54/3
f 21/54/4 22/55/4 18/56/4 17/57/4
f 19/58/5 23/59/5 21/60/5 17/61/5
f 24/62/6 20/63/6 18/64/6 22/65/6
f 25/66/1 26/67/1 28/68/1 27/69/1
f 27/70/2 28/71/2 32/72/2 31/73/2
f 31/74/3 32/72/3 30/75/3 29/76/3
f 29/76/4 30/75/4 26/77/4 25/78/4
f 27/79/5 31/74/5 29/80/5 25/81/5
f 32/82/6 28/83/6 26/84/6 30/85/6
f 33/86/1 34/87/1 36/88/1 35/89/1
f 35/90/2 36/91/2 40/92/2 39/93/2
f 39/94/3 40/92/3 38/95/3 37/96/3
f 37/97/4 38/98/4 34/99/4 33/100/4
f 35/101/5 39/102/5 37/103/5 33/104/5
f 40/92/6 36/105/6 34/106/6 38/95/6
f 41/107/1 42/108/1 44/109/1 43/110/1
f 43/111/2 44/112/2 48/113/2 47/114/2
f 47/115/3 48/116/3 46/117/3 45/118/3
f 45/119/4 46/120/4 42/121/4 41/122/4
f 43/123/5 47/115/5 45/124/5 41/125/5
f 48/126/6 44/127/6 42/128/6 46/129/6
f 49/130/1 50/131/1 52/132/1 51/133/1
f 51/134/2 52/135/2 56/136/2 55/137/2
f 55/138/3 56/136/3 54/139/3 53/140/3
f 53/140/4 54/141/4 50/142/4 49/143/4
f 51/144/5 55/145/5 53/146/5 49/147/5
f 56/148/6 52/149/6 50/150/6 54/139/6
f 57/151/1 58/152/1 60/153/1 59/154/1
f 59/155/2 60/156/2 64/157/2 63/158/2
f 63/159/3 64/157/3 62/160/3 61/161/3
f 61/162/4 62/163/4 58/164/4 57/165/4
f 59/166/5 63/167/5 61/168/5 57/165/5
f 64/169/6 60/170/6 58/171/6 62/172/6
f 65/173/1 66/174/1 68/175/1 67/176/1
f 67/177/2 68/178/2 72/179/2 71/180/2
f 71/181/3 72/179/3 70/182/3 69/183/3
f 69/183/4 70/184/4 66/185/4 65/186/4
f 67/187/5 71/188/5 69/189/5 65/190/5
f 72/191/6 68/192/6 66/193/6 70/194/6
